<svg width="65" height="36" viewBox="0 0 65 36" fill="none" xmlns="http://www.w3.org/2000/svg">
<path fill-rule="evenodd" clip-rule="evenodd" d="M17.7173 0.111272C17.2218 0.236104 16.7339 0.697327 15.5951 2.11769C14.978 2.88739 14.005 4.09941 13.433 4.81101C12.4375 6.04953 12.0668 6.62226 9.39769 11.0448C9.08531 11.5623 8.31501 12.834 7.68591 13.8707C6.77503 15.3718 6.54204 15.8195 6.54204 16.069C6.54204 16.3275 6.35358 16.6613 5.46344 17.9796C4.64398 19.1931 4.32319 19.6013 4.1283 19.6783C3.7694 19.8201 3.6138 19.9409 3.34026 20.2901C3.05414 20.6554 3.02417 21.2445 3.23816 22.297C3.31265 22.6636 3.37375 23.021 3.37384 23.0913C3.37384 23.1616 3.14574 23.3684 2.86676 23.5508C1.50574 24.441 0.514308 25.7091 0.107341 27.0802C-0.0536891 27.6228 -0.0297925 28.7703 0.153867 29.3116C0.595773 30.6144 1.67963 31.6143 3.17968 32.1031C3.67382 32.2642 7.38594 33.2113 11.6326 34.2598L13.6907 34.768L15.4241 34.7467L17.1574 34.7254L15.5836 33.633C14.7179 33.0321 13.9707 32.4852 13.9231 32.4176C13.8216 32.2737 11.8597 27.0922 10.9816 24.6494L10.3757 22.9635L9.83923 22.7109C9.54423 22.572 9.31604 22.4141 9.33224 22.36C9.34844 22.306 10.0872 21.2174 10.9739 19.9411C11.8606 18.6648 13.6559 16.0351 14.9635 14.0974C16.2711 12.1598 17.5613 10.2479 17.8305 9.84902C18.0997 9.45013 18.348 9.12448 18.3824 9.12542C18.4169 9.12636 19.4227 9.78252 20.6175 10.5836C21.8123 11.3846 23.8913 12.756 25.2374 13.6312C26.5835 14.5065 27.8343 15.3805 28.0168 15.5734C28.6709 16.265 28.7299 16.3998 30.3918 21.0032L31.0429 22.8067L30.5014 22.8851C29.672 23.0052 29.5865 23.1447 29.5477 24.4439C29.5117 25.6421 29.6098 25.96 30.0938 26.2156C30.3788 26.3662 30.5437 26.3739 33.4936 26.3741L36.5938 26.3745V26.9626V27.5506L34.8514 27.551C33.8931 27.5511 31.3574 27.5718 29.2167 27.597C25.0233 27.6463 24.6185 27.6822 23.8331 28.0748C23.285 28.3489 22.1239 29.3863 21.826 29.8681C21.449 30.478 21.2623 31.3615 21.3233 32.2485C21.3848 33.1445 21.5508 33.6556 21.9506 34.18C22.4087 34.781 23.3861 35.6003 23.8838 35.8008L24.3287 35.98H43.3374H62.346L62.9182 35.7113C63.895 35.2525 64.5052 34.5103 64.8411 33.3723C65.3884 31.5188 64.4753 29.4275 62.8154 28.7325C62.3156 28.5233 61.731 28.4262 57.3676 27.8276C54.6792 27.4588 52.113 27.1085 51.665 27.0491C50.911 26.9492 51.1973 26.9405 55.512 26.9321C60.7058 26.9221 60.5836 26.9343 61.0091 26.3825C61.2127 26.1184 61.2146 26.0929 61.2126 23.442C61.2108 21.0066 61.1956 20.74 61.0429 20.4543C60.8368 20.0688 60.4572 19.7606 60.0378 19.6385C59.7581 19.5571 57.5815 19.2398 55.5893 18.99L54.8974 18.9032L54.8471 18.6202C54.8195 18.4645 54.6921 17.4727 54.5641 16.4161C54.245 13.7831 54.1916 13.5789 53.6932 13.0872C53.1311 12.5326 52.7538 12.4319 48.5566 11.7163L46.7155 11.4024L43.2316 11.8692C41.3155 12.1259 39.5897 12.3727 39.3965 12.4178C38.9202 12.5289 38.3102 12.946 38.0734 13.3225C37.9662 13.4929 37.6066 14.4748 37.2744 15.5043C36.9421 16.5338 36.6385 17.4506 36.5997 17.5416C36.5432 17.6738 36.1153 16.9909 34.4687 14.1407C33.3354 12.1792 32.331 10.4798 32.2367 10.3644C31.8286 9.86532 24.8752 4.69182 24.432 4.55758C24.2514 4.50292 23.3564 3.94141 22.4431 3.30988L20.7825 2.1616L20.197 1.31036C19.6613 0.53172 19.5699 0.440762 19.1251 0.243476C18.6267 0.0224306 18.2212 -0.0155999 17.7173 0.111272ZM21.0138 4.35614C22.4071 5.36389 23.2683 6.06686 23.3273 6.24455C23.3591 6.34021 23.7196 6.66005 24.1285 6.95528C25.0416 7.6148 27.6277 9.62452 27.5971 9.65102C27.5729 9.67212 19.6628 5.9977 19.5558 5.91561C19.5195 5.88777 19.612 5.46026 19.7614 4.96556C20.0964 3.85618 20.1196 3.79164 20.1826 3.79164C20.2105 3.79164 20.5846 4.04562 21.0138 4.35614ZM12.119 10.9468C12.001 11.2164 11.5343 12.2837 11.082 13.3188C10.6298 14.3538 9.85625 16.1004 9.3632 17.2L8.46671 19.1993L7.43798 19.2923C6.87216 19.3434 6.39658 19.3743 6.3811 19.3609C6.36571 19.3475 6.66198 18.8294 7.03953 18.2096C7.47519 17.4943 7.86188 16.968 8.09776 16.7689C8.44436 16.4764 9.36845 15.0671 11.6322 11.3781C11.9431 10.8714 12.2282 10.4567 12.2655 10.4567C12.303 10.4567 12.237 10.6773 12.119 10.9468ZM44.379 16.3476C44.0266 18.0025 43.7044 19.4271 43.6631 19.5134C43.602 19.6409 43.2851 19.7343 41.9691 20.0131C41.0788 20.2017 40.3029 20.3957 40.2448 20.4444C40.1598 20.5156 39.8501 22.9187 39.852 23.4928C39.8524 23.6168 39.7338 23.63 38.6233 23.63H37.3941L37.4308 22.199L37.4676 20.768L38.478 17.6315C39.0337 15.9064 39.5278 14.4174 39.5758 14.3227C39.7551 13.969 40.0503 13.8968 42.5463 13.596C43.8775 13.4356 44.9786 13.3121 44.9933 13.3216C45.008 13.331 44.7315 14.6927 44.379 16.3476ZM48.5766 13.5894C49.168 13.6747 49.6772 13.7662 49.7081 13.7929C49.7388 13.8194 49.7864 14.8352 49.8137 16.05L49.8632 18.2588L49.444 18.6508C49.2135 18.8665 48.4998 19.5675 47.858 20.2088L46.6912 21.3747L46.1181 21.3349C45.8028 21.3129 45.5238 21.2767 45.4979 21.2544C45.4721 21.232 45.5552 20.7252 45.6827 20.1283C46.6524 15.5851 47.0938 13.4885 47.0938 13.4268C47.0938 13.3873 47.1855 13.3729 47.2975 13.3948C47.4095 13.4166 47.9851 13.5042 48.5766 13.5894ZM52.1694 14.3442C52.3443 14.5055 52.3996 14.7322 52.583 16.0417C52.6995 16.873 52.8309 17.7824 52.8752 18.0627C52.9194 18.3431 52.9451 18.5828 52.9322 18.5956C52.9046 18.623 51.2499 18.3975 51.2146 18.3616C51.2013 18.3482 51.2111 17.363 51.2364 16.1723L51.2822 14.0073L51.6249 14.0827C51.8133 14.1241 52.0584 14.2418 52.1694 14.3442ZM7.07302 21.9638C6.87361 22.3412 6.64442 22.694 6.56368 22.7479C6.40237 22.8556 5.67389 22.8828 5.6032 22.7837C5.57876 22.7495 5.53024 22.4161 5.4953 22.0428L5.43167 21.3641L6.00953 21.336C6.32725 21.3205 6.77811 21.3011 7.01138 21.2928L7.43554 21.2776L7.07302 21.9638ZM43.6637 27.5564C42.7625 27.7104 42.395 27.8731 41.707 28.4224L41.3227 28.7292L39.4562 28.7107C38.4295 28.7004 37.5895 28.6672 37.5895 28.6367C37.5895 28.5328 38.2676 28.0943 38.738 27.8939C39.2428 27.6789 39.9314 27.6043 42.5653 27.4795C44.4903 27.3882 44.6021 27.396 43.6637 27.5564ZM27.5421 28.6993C27.5421 28.733 27.3501 28.9295 27.1156 29.1358L26.689 29.511H25.2385H23.788L24.2176 29.1385L24.6471 28.766L25.4836 28.7268C27.2567 28.6437 27.5421 28.6399 27.5421 28.6993ZM40.7576 29.7416C40.7576 29.7822 40.7215 29.8347 40.6774 29.8583C40.6333 29.8819 40.5254 30.131 40.4377 30.4118L40.2781 30.9224H38.3003H36.3223V30.7293C36.3223 30.6231 36.4066 30.3408 36.5098 30.102L36.6974 29.6678H38.7275C39.9357 29.6678 40.7576 29.6977 40.7576 29.7416ZM49.1305 29.7471C53.8052 29.9168 60.8999 30.335 61.4408 30.4729C61.9198 30.595 62.5892 31.1777 62.7333 31.598C63.1525 32.8212 62.4576 33.9805 61.3051 33.9805C60.4186 33.9805 59.7663 33.3122 59.7663 32.4042C59.7663 31.8089 59.9412 31.4012 60.3584 31.024L60.729 30.6889L60.4513 30.6537C60.1512 30.6158 53.4128 30.2861 49.0852 30.0976C47.6166 30.0336 46.2928 29.9686 46.1434 29.953C45.9061 29.9283 45.8939 29.9357 46.0469 30.0119C46.4407 30.2079 46.9786 30.6994 47.1879 31.0544C47.3783 31.3773 47.4106 31.5402 47.4106 32.177C47.4106 32.8148 47.3784 32.9765 47.1867 33.3017C46.7626 34.021 46.1049 34.3725 45.1832 34.3725C44.12 34.3725 43.3488 33.8365 43.0062 32.8593C42.5957 31.6886 43.1934 30.4284 44.4086 29.9023C44.9126 29.6841 45.0203 29.6678 45.9542 29.668C46.5063 29.6682 47.9356 29.7038 49.1305 29.7471ZM26.0595 30.6676C26.0339 30.743 25.9859 30.9371 25.9528 31.0988L25.8926 31.3929H24.4092C22.7534 31.3929 22.8288 31.4238 23.021 30.8244L23.1152 30.5303H24.6106C25.9922 30.5303 26.1025 30.5408 26.0595 30.6676ZM44.6778 31.1535C43.9519 31.439 43.6993 32.3553 44.1841 32.945C44.4673 33.2896 45.0927 33.4825 45.5456 33.3649C46.778 33.045 46.8647 31.5382 45.6753 31.1078C45.2876 30.9674 45.1329 30.9745 44.6778 31.1535ZM52.4773 31.6496C53.2823 32.347 52.7258 33.5019 51.6313 33.4052C51.0832 33.3569 50.7115 33.03 50.6478 32.5407C50.5573 31.8455 51.0059 31.3937 51.7872 31.3932C52.1116 31.3929 52.2331 31.4381 52.4773 31.6496ZM56.8881 31.555C57.259 31.7045 57.4581 32.0226 57.4581 32.4659C57.4581 32.8084 57.4164 32.9101 57.1933 33.1118C56.555 33.6889 55.4807 33.3768 55.3571 32.5782C55.2329 31.7759 56.0617 31.2221 56.8881 31.555ZM60.8067 31.8047C60.6502 31.9213 60.5531 32.0889 60.5206 32.2985C60.4131 32.9927 61.3597 33.4133 61.8978 32.9105C62.5949 32.2588 61.579 31.2291 60.8067 31.8047ZM40.2391 32.6279C40.2663 32.9189 40.282 33.1615 40.2742 33.1669C40.2662 33.1722 39.3911 33.1938 38.3294 33.215L36.3989 33.2535L36.3189 33.0711C36.2749 32.9709 36.2117 32.7111 36.1784 32.4937L36.1179 32.0986H38.1538H40.1897L40.2391 32.6279ZM25.9462 32.8972C26.0218 33.1208 26.0633 33.3326 26.0382 33.3677C26.0131 33.4028 25.3467 33.4316 24.5572 33.4316H23.1218L23.0237 33.0357C22.9698 32.8179 22.9257 32.6249 22.9257 32.6067C22.9257 32.5885 23.4654 32.5626 24.125 32.5492C24.7847 32.5359 25.4334 32.5171 25.5665 32.5077C25.7852 32.4923 25.822 32.53 25.9462 32.8972ZM41.1045 34.6776C41.2622 34.8884 41.3912 35.0845 41.3912 35.1134C41.3912 35.1422 40.5771 35.1549 39.582 35.1416L37.7728 35.1175L37.3982 34.7928C37.1913 34.6134 37.0513 34.4291 37.0856 34.3811C37.1277 34.322 37.7367 34.2941 38.9827 34.2941H40.8176L41.1045 34.6776Z" fill="white"/>
</svg>
